<?xml version="1.0" encoding="UTF-8" standalone="no"?>
<svg
   inkscape:export-ydpi="96"
   inkscape:export-xdpi="96"
   width="256"
   height="256"
   id="svg11300"
   sodipodi:version="0.32"
   inkscape:version="1.2 (fc4e4096c5, 2022-05-31, custom)"
   sodipodi:docname="lxd-terminal.svg"
   inkscape:output_extension="org.inkscape.output.svg.inkscape"
   version="1.0"
   style="display:inline;enable-background:new"
   inkscape:export-filename="C:\Users\sblav\Pictures\vertical oblong template.png"
   xml:space="preserve"
   xmlns:inkscape="http://www.inkscape.org/namespaces/inkscape"
   xmlns:sodipodi="http://sodipodi.sourceforge.net/DTD/sodipodi-0.dtd"
   xmlns:xlink="http://www.w3.org/1999/xlink"
   xmlns="http://www.w3.org/2000/svg"
   xmlns:svg="http://www.w3.org/2000/svg"
   xmlns:rdf="http://www.w3.org/1999/02/22-rdf-syntax-ns#"
   xmlns:cc="http://creativecommons.org/ns#"
   xmlns:dc="http://purl.org/dc/elements/1.1/"><title
     id="title3004">Suru Icon Theme Template</title><sodipodi:namedview
     stroke="#ef2929"
     fill="#f57900"
     id="base"
     pagecolor="#ffffff"
     bordercolor="#000000"
     borderopacity="0.25490196"
     inkscape:pageopacity="0"
     inkscape:pageshadow="2"
     inkscape:zoom="2.8284271"
     inkscape:cx="53.386562"
     inkscape:cy="71.594562"
     inkscape:current-layer="layer6"
     showgrid="false"
     inkscape:grid-bbox="true"
     inkscape:document-units="px"
     inkscape:showpageshadow="false"
     inkscape:window-width="3440"
     inkscape:window-height="1376"
     inkscape:window-x="0"
     inkscape:window-y="0"
     width="400px"
     height="300px"
     inkscape:snap-nodes="true"
     inkscape:snap-bbox="true"
     gridtolerance="10000"
     inkscape:object-nodes="true"
     inkscape:snap-grids="true"
     showguides="true"
     inkscape:guide-bbox="true"
     inkscape:window-maximized="1"
     inkscape:bbox-paths="true"
     inkscape:snap-bbox-midpoints="true"
     inkscape:snap-global="true"
     inkscape:object-paths="true"
     inkscape:snap-intersection-paths="true"
     inkscape:snap-smooth-nodes="true"
     inkscape:pagecheckerboard="false"
     showborder="false"
     inkscape:document-rotation="0"
     inkscape:deskcolor="#d1d1d1"><inkscape:grid
       spacingy="1"
       spacingx="1"
       id="grid5883"
       type="xygrid"
       enabled="true"
       visible="true"
       empspacing="4"
       snapvisiblegridlinesonly="true"
       originx="-29.821162"
       originy="-58.821173" /><inkscape:grid
       type="xygrid"
       id="grid11592"
       empspacing="2"
       visible="true"
       enabled="false"
       spacingx="0.5"
       spacingy="0.5"
       color="#ff0000"
       opacity="0.1254902"
       empcolor="#ff0000"
       empopacity="0.25098039"
       snapvisiblegridlinesonly="true"
       originx="-29.821162"
       originy="-58.821173" /></sodipodi:namedview><defs
     id="defs3"><filter
       inkscape:collect="always"
       style="color-interpolation-filters:sRGB"
       id="filter4346"
       x="-0.014454287"
       width="1.0289086"
       y="-0.011357288"
       height="1.0227146"><feGaussianBlur
         inkscape:collect="always"
         stdDeviation="2.120027"
         id="feGaussianBlur4348" /></filter><linearGradient
       inkscape:collect="always"
       xlink:href="#linearGradient4360"
       id="linearGradient4358"
       x1="88"
       y1="88"
       x2="488"
       y2="488"
       gradientUnits="userSpaceOnUse"
       gradientTransform="rotate(-90,287.9946,298)" /><linearGradient
       id="linearGradient4360"
       inkscape:collect="always"><stop
         id="stop4362"
         offset="0"
         style="stop-color:#000000;stop-opacity:0.58823532" /><stop
         style="stop-color:#000000;stop-opacity:0"
         offset="0.88"
         id="stop4364" /><stop
         id="stop4366"
         offset="1"
         style="stop-color:#000000;stop-opacity:1" /></linearGradient><filter
       inkscape:collect="always"
       style="color-interpolation-filters:sRGB"
       id="filter4380"
       x="-0.057817147"
       width="1.1156343"
       y="-0.045429151"
       height="1.0908583"><feGaussianBlur
         inkscape:collect="always"
         stdDeviation="8.4801079"
         id="feGaussianBlur4382" /></filter><clipPath
       clipPathUnits="userSpaceOnUse"
       id="clipPath994"><path
         style="color:#000000;display:inline;overflow:visible;visibility:visible;fill:#cdcdcd;fill-opacity:1;fill-rule:nonzero;stroke:none;stroke-width:2;stroke-miterlimit:4;stroke-dasharray:none;stroke-opacity:1;marker:none;enable-background:accumulate"
         d="m 335.73108,62 c -8.82418,0 -9.77365,0.90635 -9.7304,9.74838 V 84 96.25162 c -0.0433,8.84203 0.90622,9.74838 9.7304,9.74838 h 16.53919 c 8.82418,0 9.7304,-0.90625 9.7304,-9.74838 V 84 71.74838 C 362.00067,62.90625 361.09445,62 352.27027,62 Z"
         id="path996"
         inkscape:connector-curvature="0"
         sodipodi:nodetypes="scccssscsss" /></clipPath><clipPath
       clipPathUnits="userSpaceOnUse"
       id="clipPath971"><path
         style="color:#000000;display:inline;overflow:visible;visibility:visible;opacity:1;fill:#46a926;fill-opacity:1;fill-rule:nonzero;stroke:none;stroke-width:2;stroke-miterlimit:4;stroke-dasharray:none;stroke-opacity:1;marker:none;enable-background:accumulate"
         d="m 327.8652,189 c -4.41209,0 -4.88682,0.45318 -4.8652,4.87419 V 200 206.12581 C 322.9783,210.54682 323.45311,211 327.8652,211 h 8.2696 C 340.54689,211 341,210.54688 341,206.12581 V 200 193.87419 C 341,189.45313 340.54688,189 336.13479,189 Z"
         id="path973"
         inkscape:connector-curvature="0"
         sodipodi:nodetypes="scccssscsss" /></clipPath><clipPath
       clipPathUnits="userSpaceOnUse"
       id="clipPath983"><path
         sodipodi:nodetypes="scccssscsss"
         inkscape:connector-curvature="0"
         id="path985"
         d="m 325.09646,237 c -2.80769,0 -3.10979,0.28839 -3.09603,3.10176 V 244 v 3.89824 c -0.0138,2.81337 0.28834,3.10176 3.09603,3.10176 h 5.8075 C 333.71166,251 334,250.71165 334,247.89824 V 244 240.10176 C 334,237.28836 333.71165,237 330.90396,237 Z"
         style="color:#000000;display:inline;overflow:visible;visibility:visible;opacity:1;fill:#46a926;fill-opacity:1;fill-rule:nonzero;stroke:none;stroke-width:2;stroke-miterlimit:4;stroke-dasharray:none;stroke-opacity:1;marker:none;enable-background:accumulate" /></clipPath><clipPath
       clipPathUnits="userSpaceOnUse"
       id="clipPath994-1"><path
         style="color:#000000;display:inline;overflow:visible;visibility:visible;fill:#cdcdcd;fill-opacity:1;fill-rule:nonzero;stroke:none;stroke-width:2;stroke-miterlimit:4;stroke-dasharray:none;stroke-opacity:1;marker:none;enable-background:accumulate"
         d="m 335.73108,62 c -8.82418,0 -9.77365,0.90635 -9.7304,9.74838 V 84 96.25162 c -0.0433,8.84203 0.90622,9.74838 9.7304,9.74838 h 16.53919 c 8.82418,0 9.7304,-0.90625 9.7304,-9.74838 V 84 71.74838 C 362.00067,62.90625 361.09445,62 352.27027,62 Z"
         id="path996-8"
         inkscape:connector-curvature="0"
         sodipodi:nodetypes="scccssscsss" /></clipPath><linearGradient
       inkscape:collect="always"
       xlink:href="#linearGradient916"
       id="linearGradient918"
       x1="252.12239"
       y1="210.69392"
       x2="21.425104"
       y2="210.69392"
       gradientUnits="userSpaceOnUse" /><linearGradient
       inkscape:collect="always"
       id="linearGradient916"><stop
         style="stop-color:#000000;stop-opacity:1;"
         offset="0"
         id="stop912" /><stop
         style="stop-color:#000000;stop-opacity:0;"
         offset="1"
         id="stop914" /></linearGradient><filter
       inkscape:collect="always"
       style="color-interpolation-filters:sRGB"
       id="filter920"
       x="-0.051591698"
       width="1.1031834"
       y="-0.071644206"
       height="1.1432884"><feGaussianBlur
         inkscape:collect="always"
         stdDeviation="3.1384947"
         id="feGaussianBlur922" /></filter><polygon
       id="SVGID_4_"
       points="258.207,213.306 175.922,165.787 175.991,137.31 258.277,184.829 " /><polygon
       id="SVGID_8_"
       points="176.061,198.98 135.111,175.326 175.991,151.566 216.802,175.326 " /><polygon
       id="SVGID_12_"
       points="176.131,184.794 135.146,161.14 176.026,137.31 216.837,161.14 " /><polygon
       id="SVGID_14_"
       points="176.061,198.98 135.111,175.326 135.146,161.14 176.131,184.794 " /><polygon
       id="SVGID_16_"
       points="176.026,137.31 175.991,151.566 135.111,175.326 135.146,161.14 " /><polygon
       id="SVGID_18_"
       points="216.837,161.14 216.802,175.326 175.991,151.566 176.026,137.31 " /><filter
       inkscape:collect="always"
       style="color-interpolation-filters:sRGB"
       id="filter1222"
       x="-0.013881499"
       y="-0.012663397"
       width="1.0255895"
       height="1.0253266"><feGaussianBlur
         inkscape:collect="always"
         stdDeviation="0.59364286"
         id="feGaussianBlur1224" /></filter><filter
       style="color-interpolation-filters:sRGB"
       inkscape:label="Drop Shadow"
       id="filter1664"
       x="-0.20931694"
       y="-0.26637349"
       width="1.4172665"
       height="1.5514148"><feFlood
         flood-opacity="0.498039"
         flood-color="rgb(26,26,26)"
         result="flood"
         id="feFlood1654" /><feComposite
         in="flood"
         in2="SourceGraphic"
         operator="in"
         result="composite1"
         id="feComposite1656" /><feGaussianBlur
         in="composite1"
         stdDeviation="5"
         result="blur"
         id="feGaussianBlur1658" /><feOffset
         dx="0"
         dy="0"
         result="offset"
         id="feOffset1660" /><feComposite
         in="SourceGraphic"
         in2="offset"
         operator="over"
         result="composite2"
         id="feComposite1662" /></filter></defs><metadata
     id="metadata4"><rdf:RDF><cc:Work
         rdf:about=""><dc:format>image/svg+xml</dc:format><dc:type
           rdf:resource="http://purl.org/dc/dcmitype/StillImage" /><dc:creator><cc:Agent><dc:title>Sam Hewitt</dc:title></cc:Agent></dc:creator><dc:source /><cc:license
           rdf:resource="http://creativecommons.org/licenses/by-sa/4.0/" /><dc:title>Suru Icon Theme Template</dc:title><dc:subject><rdf:Bag /></dc:subject><dc:date /><dc:rights><cc:Agent><dc:title /></cc:Agent></dc:rights><dc:publisher><cc:Agent><dc:title /></cc:Agent></dc:publisher><dc:identifier /><dc:relation /><dc:language /><dc:coverage /><dc:description /><dc:contributor><cc:Agent><dc:title /></cc:Agent></dc:contributor></cc:Work><cc:Work
         rdf:about=""><dc:format>image/svg+xml</dc:format><dc:type
           rdf:resource="http://purl.org/dc/dcmitype/StillImage" /></cc:Work><cc:License
         rdf:about="http://creativecommons.org/licenses/by-sa/4.0/"><cc:permits
           rdf:resource="http://creativecommons.org/ns#Reproduction" /><cc:permits
           rdf:resource="http://creativecommons.org/ns#Distribution" /><cc:requires
           rdf:resource="http://creativecommons.org/ns#Notice" /><cc:requires
           rdf:resource="http://creativecommons.org/ns#Attribution" /><cc:permits
           rdf:resource="http://creativecommons.org/ns#DerivativeWorks" /><cc:requires
           rdf:resource="http://creativecommons.org/ns#ShareAlike" /></cc:License></rdf:RDF></metadata><g
     style="display:inline"
     inkscape:groupmode="layer"
     inkscape:label="Icon"
     id="layer1"
     transform="translate(-29.821162,-58.821173)"><g
       style="display:none"
       inkscape:label="Baseplate"
       id="layer7"
       inkscape:groupmode="layer"><text
         y="-8.2548828"
         xml:space="preserve"
         x="19.006836"
         style="font-style:normal;font-variant:normal;font-weight:normal;font-stretch:normal;line-height:0%;font-family:'DejaVu Sans';-inkscape-font-specification:'DejaVu Sans';display:inline;fill:#000000;fill-opacity:1;stroke:none;enable-background:new"
         inkscape:label="context"
         id="context"><tspan
           style="font-style:normal;font-variant:normal;font-weight:normal;font-stretch:normal;font-size:18px;line-height:1.25;font-family:'DejaVu Sans';-inkscape-font-specification:'DejaVu Sans'"
           y="-8.2548828"
           x="19.006836"
           sodipodi:role="line"
           id="tspan3933">apps</tspan></text><text
         y="-8.2548828"
         xml:space="preserve"
         x="146.48828"
         style="font-style:normal;font-variant:normal;font-weight:bold;font-stretch:normal;line-height:0%;font-family:'DejaVu Sans';-inkscape-font-specification:'DejaVu Sans Bold';text-align:start;writing-mode:lr-tb;text-anchor:start;display:inline;fill:#000000;fill-opacity:1;stroke:none;enable-background:new"
         inkscape:label="icon-name"
         id="icon-name"><tspan
           style="font-style:normal;font-variant:normal;font-weight:bold;font-stretch:normal;font-size:18px;line-height:1.25;font-family:'DejaVu Sans';-inkscape-font-specification:'DejaVu Sans Bold'"
           y="-8.2548828"
           x="146.48828"
           sodipodi:role="line"
           id="tspan3937">terminal-app</tspan></text><rect
         style="display:inline;overflow:visible;visibility:visible;fill:#cdcdcd;fill-opacity:1;fill-rule:nonzero;stroke:none;stroke-width:2;marker:none;enable-background:accumulate"
         id="rect16x16"
         width="16"
         height="16"
         x="320"
         y="236"
         inkscape:label="16x16" /><rect
         style="display:inline;overflow:visible;visibility:visible;fill:#cdcdcd;fill-opacity:1;fill-rule:nonzero;stroke:none;stroke-width:2;marker:none;enable-background:accumulate"
         id="rect24x24"
         width="24"
         height="24"
         x="320"
         y="188"
         inkscape:label="24x24" /><rect
         style="display:inline;overflow:visible;visibility:visible;fill:#cdcdcd;fill-opacity:1;fill-rule:nonzero;stroke:none;stroke-width:2;marker:none;enable-background:accumulate"
         id="rect32x32"
         width="32"
         height="32"
         x="320"
         y="132"
         inkscape:label="32x32" /><rect
         inkscape:label="48x48"
         y="60"
         x="320"
         height="48"
         width="48"
         id="rect48x48"
         style="display:inline;overflow:visible;visibility:visible;fill:#cdcdcd;fill-opacity:1;fill-rule:nonzero;stroke:none;stroke-width:2;marker:none;enable-background:accumulate" /><rect
         style="display:inline;overflow:visible;visibility:visible;fill:#cdcdcd;fill-opacity:1;fill-rule:nonzero;stroke:none;stroke-width:2;marker:none;enable-background:accumulate"
         id="rect3951"
         width="256"
         height="256"
         x="24"
         y="28"
         inkscape:label="48x48" /></g><g
       inkscape:groupmode="layer"
       id="layer8"
       inkscape:label="Backgrounds"
       style="display:inline" /><g
       inkscape:groupmode="layer"
       id="layer6"
       inkscape:label="Pictograms"
       style="display:inline"><g
         id="g2913"
         transform="translate(5.8238662,29.82117)"><path
           style="color:#000000;display:inline;overflow:visible;visibility:visible;opacity:0.1;fill:#000000;fill-opacity:1;fill-rule:nonzero;stroke:none;stroke-width:2;marker:none;filter:url(#filter4346);enable-background:accumulate"
           d="M 189.84323,74 C 119.24979,74 111.65402,81.250835 112,151.98706 V 298 444.01294 C 111.65402,514.74917 119.24979,522 189.84323,522 H 386.15677 C 456.75021,522 462.16345,514.72616 464,444.01294 V 298 151.98706 C 464,81.249993 456.75021,74 386.15677,74 Z"
           id="rect4158-9"
           inkscape:connector-curvature="0"
           sodipodi:nodetypes="scccssscsss"
           transform="matrix(0,0.5,-0.5,0,300.9973,13.002698)" /><path
           sodipodi:nodetypes="scccssscsss"
           inkscape:connector-curvature="0"
           id="path4350"
           d="M 189.84323,74 C 119.24979,74 111.65402,81.250835 112,151.98706 V 298 444.01294 C 111.65402,514.74917 119.24979,522 189.84323,522 H 386.15677 C 456.75021,522 464,514.75001 464,444.01294 V 298 151.98706 C 464,81.249993 456.75021,74 386.15677,74 Z"
           style="color:#000000;display:inline;overflow:visible;visibility:visible;opacity:0.3;fill:url(#linearGradient4358);fill-opacity:1;fill-rule:nonzero;stroke:none;stroke-width:2;marker:none;filter:url(#filter4380);enable-background:accumulate"
           transform="matrix(0,0.5,-0.5,0,300.9973,13.002698)" /><path
           style="color:#000000;display:inline;overflow:visible;visibility:visible;opacity:0.1;fill:#000000;fill-opacity:1;fill-rule:nonzero;stroke:none;stroke-width:1.02029;marker:none;enable-background:accumulate"
           d="m 266.0025,105.8091 c 0,-36.098811 -3.69016,-39.983003 -39.68984,-39.806081 H 152.0025 77.69234 C 41.69265,65.826097 38.0025,69.710289 38.0025,105.8091 v 100.38732 c 0,36.09881 3.68973,39.80608 39.68984,39.80608 h 74.31016 74.31016 c 36.00011,0 39.68984,-3.70727 39.68984,-39.80608 z"
           id="rect4158-7"
           inkscape:connector-curvature="0"
           sodipodi:nodetypes="scccssscsss" /><path
           style="color:#000000;display:inline;overflow:visible;visibility:visible;fill:#4d4d4d;fill-opacity:1;fill-rule:nonzero;stroke:none;stroke-width:1;marker:none;enable-background:accumulate"
           d="m 263.9973,205.07568 c 0,35.29673 -3.62542,39.09461 -38.99353,38.92162 H 151.9973 78.99083 C 43.62271,244.17029 39.9973,240.37241 39.9973,205.07568 v -98.15676 c 0,-35.296716 3.625,-38.921616 38.99353,-38.921616 h 73.00647 73.00647 c 35.36853,0 38.99353,3.6249 38.99353,38.921616 z"
           id="rect4158"
           inkscape:connector-curvature="0"
           sodipodi:nodetypes="scccssscsss" /><path
           style="color:#000000;display:inline;overflow:visible;visibility:visible;opacity:0.3;fill:#ffffff;fill-opacity:1;fill-rule:nonzero;stroke:none;stroke-width:1;marker:none;enable-background:accumulate"
           d="m 78.990234,67.998047 c -35.36853,0 -38.992187,3.623202 -38.992187,38.919923 v 98.1582 c 0,0.0882 0.0019,0.16224 0.002,0.25 V 108.91602 C 40,73.6193 43.625611,69.994141 78.994141,69.994141 H 152 225.00586 c 35.28016,0 38.97394,3.621035 38.99219,38.671879 v -1.74805 c 0,-35.296721 -3.62561,-38.919923 -38.99414,-38.919923 h -73.00586 z"
           id="rect4158-78" /><path
           style="color:#000000;display:inline;overflow:visible;visibility:visible;opacity:0.2;fill:#000000;fill-opacity:1;fill-rule:nonzero;stroke:none;stroke-width:1;marker:none;enable-background:accumulate"
           d="m 39.998047,203.07617 v 2 c 0,35.29673 3.624067,39.09487 38.992187,38.92188 h 73.007816 73.00586 c 35.36811,0.17299 38.99414,-3.62515 38.99414,-38.92188 v -2 c 0,35.29673 -3.62603,39.09487 -38.99414,38.92188 H 151.99805 78.990234 c -35.36812,0.17299 -38.992187,-3.62515 -38.992187,-38.92188 z"
           id="rect4158-6" /><path
           style="color:#000000;display:inline;overflow:visible;visibility:visible;opacity:0.05;fill:#ffffff;fill-opacity:1;fill-rule:nonzero;stroke:none;stroke-width:1;marker:none;enable-background:accumulate"
           d="m 39.998047,148 v 57.07617 c 0,35.29673 3.624067,39.09487 38.992187,38.92188 h 73.007816 73.00586 c 35.36811,0.17299 38.99414,-3.62515 38.99414,-38.92188 V 148 Z"
           id="rect4158-1" /><g
           id="g542"
           transform="matrix(0.81316171,0,0,0.81316171,-20.693944,6.388955)"
           style="display:inline;opacity:0.500123;mix-blend-mode:normal;filter:url(#filter1222);enable-background:new"><polygon
             fill="#dd4814"
             stroke="#ffffff"
             stroke-linecap="round"
             stroke-linejoin="round"
             stroke-miterlimit="10"
             points="217.326,237.066 299.088,189.546 299.018,218.023 217.256,265.542 "
             id="polygon337" /><polygon
             fill="#dd4814"
             stroke="#ffffff"
             stroke-linecap="round"
             stroke-linejoin="round"
             stroke-miterlimit="10"
             points="135.041,189.546 217.326,237.066 217.256,265.542 134.971,218.023 "
             id="polygon339" /><polygon
             fill="#333333"
             stroke="#ffffff"
             stroke-linecap="round"
             stroke-linejoin="round"
             stroke-miterlimit="10"
             points="216.872,113.55 299.157,161.07 258.277,184.829 175.991,137.31 "
             id="polygon341" /><g
             enable-background="new    "
             id="g345">
	<polygon
   fill="#333333"
   stroke="#ffffff"
   stroke-linecap="round"
   stroke-linejoin="round"
   stroke-miterlimit="10"
   points="258.486,184.934 299.367,161.175 299.262,189.651 258.382,213.411 "
   id="polygon343" />
</g><g
             enable-background="new    "
             id="g363">
	<g
   id="g348">
		<polygon
   id="SVGID_1_"
   fill="#333333"
   points="175.991,137.31 258.277,184.829 258.207,213.306 175.922,165.787 " />
	</g>
	<g
   id="g358">
		<defs
   id="defs351">
			<polygon
   id="polygon474"
   points="175.991,137.31 258.277,184.829 258.207,213.306 175.922,165.787 " />
		</defs>
		<clipPath
   id="SVGID_6_">
			<use
   xlink:href="#SVGID_4_"
   overflow="visible"
   id="use353" />
		</clipPath>
		<polygon
   clip-path="url(#SVGID_6_)"
   fill="#333333"
   stroke="#ffffff"
   stroke-miterlimit="10"
   points="175.991,137.31 258.277,184.829 258.207,213.306 175.922,165.787 "
   id="polygon356" />
	</g>
	<g
   id="g361">
		<polygon
   id="SVGID_2_"
   fill="none"
   stroke="#ffffff"
   stroke-miterlimit="10"
   points="175.991,137.31 258.277,184.829 258.207,213.306 175.922,165.787 " />
	</g>
</g><polygon
             fill="#888888"
             stroke="#ffffff"
             stroke-linecap="round"
             stroke-linejoin="round"
             stroke-miterlimit="10"
             points="175.956,151.566 258.242,199.05 217.361,222.81 135.076,175.326 "
             id="polygon365" /><polygon
             fill="#888888"
             stroke="#ffffff"
             stroke-linecap="round"
             stroke-linejoin="round"
             stroke-miterlimit="10"
             points="135.076,175.326 217.361,222.81 217.326,237.066 135.041,189.546 "
             id="polygon367" /><polygon
             fill="#888888"
             stroke="#ffffff"
             stroke-linecap="round"
             stroke-linejoin="round"
             stroke-miterlimit="10"
             points="217.361,222.81 258.242,199.05 258.207,213.306 217.326,237.066 "
             id="polygon369" /><polygon
             fill="#2c001e"
             stroke="#ffffff"
             stroke-linecap="round"
             stroke-linejoin="round"
             stroke-miterlimit="10"
             points="176.096,184.794 216.802,161.14 216.767,175.326 176.061,198.98 "
             id="polygon371" /><polygon
             fill="#cdcdcd"
             points="175.991,137.31 216.802,161.14 176.096,184.794 135.111,161.14 "
             id="polygon373" /><polygon
             fill="#cdcdcd"
             points="135.111,161.14 176.096,184.794 176.061,198.98 135.076,175.326 "
             id="polygon375" /><polygon
             fill="#cdcdcd"
             points="176.096,184.794 216.802,161.14 216.767,175.326 176.061,198.98 "
             id="polygon377" /><g
             id="g454">
	<g
   enable-background="new    "
   id="g392">
		<g
   id="g387">
			<defs
   id="defs380">
				<polygon
   id="polygon491"
   points="175.991,151.566 216.802,175.326 176.061,198.98 135.111,175.326 " />
			</defs>
			<clipPath
   id="SVGID_10_">
				<use
   xlink:href="#SVGID_8_"
   overflow="visible"
   id="use382" />
			</clipPath>
			<polygon
   clip-path="url(#SVGID_10_)"
   fill="none"
   stroke="#ffffff"
   stroke-miterlimit="10"
   points="175.991,151.566 216.802,175.326 176.096,198.98 135.111,175.326 "
   id="polygon385" />
		</g>
		<g
   id="g390">
			<polygon
   id="SVGID_3_"
   fill="none"
   stroke="#ffffff"
   stroke-miterlimit="10"
   points="175.991,151.566 216.802,175.326 176.061,198.98 135.111,175.326 " />
		</g>
	</g>
	<g
   enable-background="new    "
   id="g407">
		<g
   id="g402">
			<defs
   id="defs395">
				<polygon
   id="polygon501"
   points="176.026,137.31 216.837,161.14 176.131,184.794 135.146,161.14 " />
			</defs>
			<clipPath
   id="SVGID_13_">
				<use
   xlink:href="#SVGID_12_"
   overflow="visible"
   id="use397" />
			</clipPath>
			<polygon
   clip-path="url(#SVGID_13_)"
   fill="none"
   stroke="#ffffff"
   stroke-miterlimit="10"
   points="176.026,137.31 216.837,161.14 176.131,184.794 135.146,161.14 "
   id="polygon400" />
		</g>
		<g
   id="g405">
			<polygon
   id="SVGID_5_"
   fill="none"
   stroke="#ffffff"
   stroke-miterlimit="10"
   points="176.026,137.31 216.837,161.14 176.131,184.794 135.146,161.14 " />
		</g>
	</g>
	<g
   enable-background="new    "
   id="g422">
		<g
   id="g417">
			<defs
   id="defs410">
				<polygon
   id="polygon511"
   points="135.146,161.14 176.131,184.794 176.061,198.98 135.111,175.326 " />
			</defs>
			<clipPath
   id="SVGID_15_">
				<use
   xlink:href="#SVGID_14_"
   overflow="visible"
   id="use412" />
			</clipPath>
			<polygon
   clip-path="url(#SVGID_15_)"
   fill="none"
   stroke="#ffffff"
   stroke-miterlimit="10"
   points="135.146,161.14 176.131,184.794 176.096,198.98 135.111,175.326 "
   id="polygon415" />
		</g>
		<g
   id="g420">
			<polygon
   id="SVGID_7_"
   fill="none"
   stroke="#ffffff"
   stroke-miterlimit="10"
   points="135.146,161.14 176.131,184.794 176.061,198.98 135.111,175.326 " />
		</g>
	</g>
	<g
   enable-background="new    "
   id="g437">
		<g
   id="g432">
			<defs
   id="defs425">
				<polygon
   id="polygon521"
   points="135.111,175.326 135.146,161.14 176.026,137.31 175.991,151.566 " />
			</defs>
			<clipPath
   id="SVGID_17_">
				<use
   xlink:href="#SVGID_16_"
   overflow="visible"
   id="use427" />
			</clipPath>
			<polygon
   clip-path="url(#SVGID_17_)"
   fill="none"
   stroke="#ffffff"
   stroke-miterlimit="10"
   points="135.111,175.326 135.146,161.14 176.026,137.31 175.991,151.566 "
   id="polygon430" />
		</g>
		<g
   id="g435">
			<polygon
   id="SVGID_9_"
   fill="none"
   stroke="#ffffff"
   stroke-miterlimit="10"
   points="135.111,175.326 135.146,161.14 176.026,137.31 175.991,151.566 " />
		</g>
	</g>
	<g
   enable-background="new    "
   id="g452">
		<g
   id="g447">
			<defs
   id="defs440">
				<polygon
   id="polygon531"
   points="175.991,151.566 176.026,137.31 216.837,161.14 216.802,175.326 " />
			</defs>
			<clipPath
   id="SVGID_19_">
				<use
   xlink:href="#SVGID_18_"
   overflow="visible"
   id="use442" />
			</clipPath>
			<polygon
   clip-path="url(#SVGID_19_)"
   fill="none"
   stroke="#ffffff"
   stroke-miterlimit="10"
   points="175.817,151.671 176.026,137.31 216.837,161.14 216.802,175.326 "
   id="polygon445" />
		</g>
		<g
   id="g450">
			<polygon
   id="SVGID_11_"
   fill="none"
   stroke="#ffffff"
   stroke-miterlimit="10"
   points="175.991,151.566 176.026,137.31 216.837,161.14 216.802,175.326 " />
		</g>
	</g>
</g></g><g
           id="g1229"
           style="filter:url(#filter1664)"
           transform="translate(-12)"><path
             transform="matrix(0.52016215,0,0,0.52160725,20.855193,22.100141)"
             sodipodi:nodetypes="ccccccccccccc"
             style="font-style:normal;font-variant:normal;font-weight:500;font-stretch:normal;font-size:299.107px;line-height:125%;font-family:Ubuntu;-inkscape-font-specification:'Ubuntu Medium';text-align:center;letter-spacing:0px;word-spacing:0px;writing-mode:lr-tb;text-anchor:middle;display:inline;opacity:0.5;fill:url(#linearGradient918);fill-opacity:1;stroke:none;stroke-width:1.91981;filter:url(#filter920);enable-background:new"
             d="m 110.85775,138 -4.93526,14.80579 50.10039,20.04015 -50.10039,20.04016 4.93526,14.80578 64.45752,-27.21872 v -15.25444 z m 64.36555,90.03114 v 15.10489 h 76.69918 v -15.10489 z"
             id="path910"
             inkscape:connector-curvature="0" /><path
             style="font-style:normal;font-variant:normal;font-weight:500;font-stretch:normal;font-size:299.107px;line-height:125%;font-family:Ubuntu;-inkscape-font-specification:'Ubuntu Medium';text-align:center;letter-spacing:0px;word-spacing:0px;writing-mode:lr-tb;text-anchor:middle;display:inline;fill:#f2f2f2;fill-opacity:1;stroke:none;stroke-width:1;enable-background:new"
             d="m 78.519203,93.038725 -2.56714,7.722805 26.060317,10.45309 -26.060317,10.45309 2.56714,7.72281 33.528357,-14.19748 v -7.95683 z m 33.480517,46.960895 v 8 h 40 v -8 z"
             id="path4212"
             inkscape:connector-curvature="0"
             sodipodi:nodetypes="ccccccccccccc" /><path
             style="font-style:normal;font-variant:normal;font-weight:500;font-stretch:normal;font-size:299.107px;line-height:125%;font-family:Ubuntu;-inkscape-font-specification:'Ubuntu Medium';text-align:center;letter-spacing:0px;word-spacing:0px;writing-mode:lr-tb;text-anchor:middle;display:inline;fill:#ffffff;fill-opacity:1;stroke:none;stroke-width:1;enable-background:new"
             d="m 78.519343,93.038725 -2.56728,7.723255 0.3058,0.12225 2.26148,-6.80229 33.528107,14.1975 v -1.04322 z m 22.192227,18.697375 -24.759507,9.93194 0.3058,0.92096 25.754117,-10.33129 z m 11.28782,28.26358 v 1.04321 h 40.00033 v -1.04321 z"
             id="path4327"
             inkscape:connector-curvature="0"
             sodipodi:nodetypes="ccccccccccccccccc" /></g></g></g></g></svg>
